<svg version="1.1" id="Layer_1" xmlns="http://www.w3.org/2000/svg" xmlns:xlink="http://www.w3.org/1999/xlink" x="0px" y="0px"
	 width="100%" viewBox="0 0 588 149" enable-background="new 0 0 588 149" xml:space="preserve">
<path fill="#000000" opacity="1.000000" stroke="none" 
	d="
M1.000000,85.000000 
	C1.000000,57.023750 1.000000,29.047501 1.000000,1.000000 
	C144.687546,1.000000 288.375122,1.000000 432.531342,1.468611 
	C433.000000,8.842555 433.000000,15.747888 433.000000,22.666338 
	C442.921326,22.666338 452.401245,22.666338 462.000000,22.666338 
	C462.000000,15.222090 462.000000,8.111045 462.000000,1.000000 
	C504.257904,1.000000 546.515808,1.000000 589.000000,1.000000 
	C589.000000,40.353939 589.000000,79.708313 588.531372,119.531342 
	C549.760498,120.000000 511.458344,120.000000 473.000000,120.000000 
	C473.000000,130.422012 473.000000,140.211014 473.000000,150.000000 
	C315.666656,150.000000 158.333313,150.000000 1.000000,150.000000 
	C1.000000,136.247360 1.000000,122.592339 1.373639,108.470421 
	C2.048819,108.083984 2.534336,108.073380 2.625648,108.257889 
	C8.849860,120.834137 20.241283,123.968224 32.756943,123.828392 
	C40.619896,123.740547 48.364159,121.714211 55.248287,117.357826 
	C57.556675,115.897034 59.921173,114.730354 61.413445,118.680641 
	C61.812584,119.737213 63.663445,120.867447 64.872749,120.895653 
	C73.143661,121.088570 81.421211,120.996803 89.998413,120.996803 
	C89.998413,118.075867 90.109215,115.607140 89.979599,113.151085 
	C89.355286,101.321358 88.502296,89.501205 88.057205,77.665367 
	C87.757042,69.683289 88.047401,61.680412 87.986504,53.687504 
	C87.927086,45.889515 82.010902,36.543240 75.429573,34.175030 
	C58.306973,28.013676 41.110752,26.506901 23.582197,32.936302 
	C9.729756,38.017319 5.118347,45.933800 4.375229,60.000000 
	C11.860439,60.000000 19.349443,60.275906 26.797045,59.841679 
	C29.214682,59.700722 32.511620,58.324139 33.700836,56.437607 
	C37.532505,50.359177 42.804268,48.447281 49.519428,48.988712 
	C54.244759,49.369709 58.762501,52.908749 58.999752,56.536545 
	C59.327705,61.551273 57.532028,63.618923 51.118214,64.993057 
	C41.358219,67.084084 31.512785,68.795609 21.796946,71.067352 
	C13.919650,72.909225 6.114763,75.220833 2.923098,84.089462 
	C2.752890,84.562416 1.662190,84.704102 1.000000,85.000000 
M399.622681,121.000000 
	C408.039276,121.000000 416.455872,121.000000 424.000183,121.000000 
	C424.000183,98.295029 423.951660,76.244431 424.031372,54.194302 
	C424.053711,48.014503 421.412720,43.086990 417.859009,38.300137 
	C409.164368,26.588406 384.062195,26.667019 374.374512,34.147442 
	C371.400696,36.443699 368.489319,38.820793 364.848450,41.718758 
	C364.848450,37.847458 364.848450,35.077240 364.848450,32.230644 
	C355.136932,32.230644 345.733734,32.230644 336.208893,32.230644 
	C336.208893,61.849293 336.208893,91.236977 336.208893,120.795418 
	C346.150818,120.795418 355.883484,120.795418 366.000000,120.795418 
	C366.000000,105.151054 365.945862,89.707733 366.045990,74.265411 
	C366.065887,71.201073 366.151001,67.963547 367.110687,65.110146 
	C370.546906,54.893536 379.776031,50.815266 389.123840,56.055466 
	C394.177612,58.888496 394.906036,64.088226 394.949646,69.186378 
	C395.086487,85.171829 395.071045,101.159782 394.934875,117.145241 
	C394.910187,120.043533 395.384521,121.657555 399.622681,121.000000 
M97.000000,108.489891 
	C97.000000,112.590836 97.000000,116.691780 97.000000,120.722824 
	C107.299355,120.722824 117.033150,120.722824 127.000000,120.722824 
	C127.000000,104.818047 126.872200,89.187531 127.091820,73.561890 
	C127.145256,69.760262 127.930626,65.841789 129.105957,62.212315 
	C130.952469,56.510181 137.110947,53.487217 144.537277,54.000408 
	C149.923767,54.372639 154.113968,57.786911 154.888275,63.762184 
	C155.750900,70.418983 155.871445,77.195503 155.956146,83.924423 
	C156.110474,96.186295 156.000000,108.451492 156.000000,120.753403 
	C166.236938,120.753403 175.969803,120.753403 185.999756,120.753403 
	C185.999756,119.708954 186.010239,118.909065 185.998230,118.109520 
	C185.666855,96.042923 185.654755,73.962967 184.735733,51.920818 
	C184.545975,47.369480 181.803131,42.289715 178.816299,38.605202 
	C168.578690,25.976307 145.585266,26.226587 132.614731,35.862160 
	C130.630478,37.336224 128.473709,38.578053 125.728027,40.361679 
	C125.728027,36.989719 125.728027,34.574772 125.728027,32.304176 
	C115.980583,32.304176 106.578568,32.304176 97.000000,32.304176 
	C97.000000,57.569294 97.000000,82.530693 97.000000,108.489891 
M297.923706,30.405308 
	C296.461182,30.233547 294.983093,30.145378 293.538483,29.877176 
	C278.014923,26.995140 263.768738,30.469011 252.569183,41.269989 
	C237.962906,55.356461 235.055771,73.127670 240.796524,92.279770 
	C244.648300,105.129906 252.728592,114.539383 265.299438,119.676201 
	C273.791565,123.146332 282.496948,124.422073 291.791992,123.122253 
	C305.166351,121.251976 316.317871,115.951660 323.999115,104.624146 
	C334.437592,89.230537 334.875763,72.524597 328.175110,55.905357 
	C322.887451,42.790657 312.837738,34.067516 297.923706,30.405308 
M193.000000,80.499863 
	C193.333481,88.570641 193.279694,96.681694 194.113770,104.700401 
	C194.885574,112.120064 198.858093,117.610321 206.431900,119.769547 
	C217.486420,122.921089 228.621033,122.608536 239.704895,120.639923 
	C239.704895,113.327881 239.704895,106.250763 239.704895,98.999565 
	C236.429260,98.999565 233.444107,99.088760 230.466354,98.978058 
	C226.300461,98.823189 223.253632,96.343819 223.150940,92.500084 
	C222.783524,78.748405 223.007050,64.980934 223.007050,50.828266 
	C228.971436,50.828266 234.385742,50.828266 239.712585,50.828266 
	C239.712585,44.353439 239.712585,38.282539 239.712585,31.818897 
	C234.018936,31.818897 228.605774,31.818897 222.815338,31.818897 
	C222.815338,23.015118 222.815338,14.604961 222.815338,6.292674 
	C212.676559,6.292674 202.938721,6.292674 193.000000,6.292674 
	C193.000000,30.889820 193.000000,55.194878 193.000000,80.499863 
M433.000000,77.500000 
	C433.000000,91.928452 433.000000,106.356911 433.000000,120.712074 
	C442.979126,120.712074 452.384308,120.712074 461.714355,120.712074 
	C461.714355,91.022163 461.714355,61.621052 461.714355,32.287891 
	C452.020935,32.287891 442.615784,32.287891 433.000000,32.287891 
	C433.000000,47.216537 433.000000,61.858269 433.000000,77.500000 
z"/>
<path fill="#FFFFFF" opacity="1.000000" stroke="none" 
	d="
M1.000000,85.468620 
	C1.662190,84.704102 2.752890,84.562416 2.923098,84.089462 
	C6.114763,75.220833 13.919650,72.909225 21.796946,71.067352 
	C31.512785,68.795609 41.358219,67.084084 51.118214,64.993057 
	C57.532028,63.618923 59.327705,61.551273 58.999752,56.536545 
	C58.762501,52.908749 54.244759,49.369709 49.519428,48.988712 
	C42.804268,48.447281 37.532505,50.359177 33.700836,56.437607 
	C32.511620,58.324139 29.214682,59.700722 26.797045,59.841679 
	C19.349443,60.275906 11.860439,60.000000 4.375229,60.000000 
	C5.118347,45.933800 9.729756,38.017319 23.582197,32.936302 
	C41.110752,26.506901 58.306973,28.013676 75.429573,34.175030 
	C82.010902,36.543240 87.927086,45.889515 87.986504,53.687504 
	C88.047401,61.680412 87.757042,69.683289 88.057205,77.665367 
	C88.502296,89.501205 89.355286,101.321358 89.979599,113.151085 
	C90.109215,115.607140 89.998413,118.075867 89.998413,120.996803 
	C81.421211,120.996803 73.143661,121.088570 64.872749,120.895653 
	C63.663445,120.867447 61.812584,119.737213 61.413445,118.680641 
	C59.921173,114.730354 57.556675,115.897034 55.248287,117.357826 
	C48.364159,121.714211 40.619896,123.740547 32.756943,123.828392 
	C20.241283,123.968224 8.849860,120.834137 2.625648,108.257889 
	C2.534336,108.073380 2.048819,108.083984 1.373639,108.001762 
	C1.000000,100.645744 1.000000,93.291496 1.000000,85.468620 
M39.991924,104.980545 
	C53.159248,106.103287 61.147625,95.841827 58.524921,80.351509 
	C50.858440,82.604904 43.114937,84.421394 35.795387,87.311577 
	C33.591171,88.181931 31.554857,91.904434 31.207272,94.552170 
	C30.448839,100.329590 32.400242,102.243248 39.991924,104.980545 
z"/>
<path fill="#FFFFFF" opacity="1.000000" stroke="none" 
	d="
M473.468658,150.000000 
	C473.000000,140.211014 473.000000,130.422012 473.000000,120.000000 
	C511.458344,120.000000 549.760498,120.000000 588.531372,120.000000 
	C589.000000,129.969940 589.000000,139.939896 589.000000,150.000000 
	C550.645813,150.000000 512.291565,150.000000 473.468658,150.000000 
z"/>
<path fill="#FFFFFF" opacity="1.000000" stroke="none" 
	d="
M461.531342,1.000000 
	C462.000000,8.111045 462.000000,15.222090 462.000000,22.666338 
	C452.401245,22.666338 442.921326,22.666338 433.000000,22.666338 
	C433.000000,15.747888 433.000000,8.842555 433.000000,1.468611 
	C442.354218,1.000000 451.708466,1.000000 461.531342,1.000000 
z"/>
<path fill="#FFFFFF" opacity="1.000000" stroke="none" 
	d="
M399.137207,121.000000 
	C395.384521,121.657555 394.910187,120.043533 394.934875,117.145241 
	C395.071045,101.159782 395.086487,85.171829 394.949646,69.186378 
	C394.906036,64.088226 394.177612,58.888496 389.123840,56.055466 
	C379.776031,50.815266 370.546906,54.893536 367.110687,65.110146 
	C366.151001,67.963547 366.065887,71.201073 366.045990,74.265411 
	C365.945862,89.707733 366.000000,105.151054 366.000000,120.795418 
	C355.883484,120.795418 346.150818,120.795418 336.208893,120.795418 
	C336.208893,91.236977 336.208893,61.849293 336.208893,32.230644 
	C345.733734,32.230644 355.136932,32.230644 364.848450,32.230644 
	C364.848450,35.077240 364.848450,37.847458 364.848450,41.718758 
	C368.489319,38.820793 371.400696,36.443699 374.374512,34.147442 
	C384.062195,26.667019 409.164368,26.588406 417.859009,38.300137 
	C421.412720,43.086990 424.053711,48.014503 424.031372,54.194302 
	C423.951660,76.244431 424.000183,98.295029 424.000183,121.000000 
	C416.455872,121.000000 408.039276,121.000000 399.137207,121.000000 
z"/>
<path fill="#FFFFFF" opacity="1.000000" stroke="none" 
	d="
M97.000000,107.990997 
	C97.000000,82.530693 97.000000,57.569294 97.000000,32.304176 
	C106.578568,32.304176 115.980583,32.304176 125.728027,32.304176 
	C125.728027,34.574772 125.728027,36.989719 125.728027,40.361679 
	C128.473709,38.578053 130.630478,37.336224 132.614731,35.862160 
	C145.585266,26.226587 168.578690,25.976307 178.816299,38.605202 
	C181.803131,42.289715 184.545975,47.369480 184.735733,51.920818 
	C185.654755,73.962967 185.666855,96.042923 185.998230,118.109520 
	C186.010239,118.909065 185.999756,119.708954 185.999756,120.753403 
	C175.969803,120.753403 166.236938,120.753403 156.000000,120.753403 
	C156.000000,108.451492 156.110474,96.186295 155.956146,83.924423 
	C155.871445,77.195503 155.750900,70.418983 154.888275,63.762184 
	C154.113968,57.786911 149.923767,54.372639 144.537277,54.000408 
	C137.110947,53.487217 130.952469,56.510181 129.105957,62.212315 
	C127.930626,65.841789 127.145256,69.760262 127.091820,73.561890 
	C126.872200,89.187531 127.000000,104.818047 127.000000,120.722824 
	C117.033150,120.722824 107.299355,120.722824 97.000000,120.722824 
	C97.000000,116.691780 97.000000,112.590836 97.000000,107.990997 
z"/>
<path fill="#FFFFFF" opacity="1.000000" stroke="none" 
	d="
M298.255676,30.678047 
	C312.837738,34.067516 322.887451,42.790657 328.175110,55.905357 
	C334.875763,72.524597 334.437592,89.230537 323.999115,104.624146 
	C316.317871,115.951660 305.166351,121.251976 291.791992,123.122253 
	C282.496948,124.422073 273.791565,123.146332 265.299438,119.676201 
	C252.728592,114.539383 244.648300,105.129906 240.796524,92.279770 
	C235.055771,73.127670 237.962906,55.356461 252.569183,41.269989 
	C263.768738,30.469011 278.014923,26.995140 293.538483,29.877176 
	C294.983093,30.145378 296.461182,30.233547 298.255676,30.678047 
M268.945404,70.466797 
	C266.321960,80.161430 269.042999,88.829620 274.989410,96.303368 
	C279.712280,102.239265 293.123383,101.492233 296.497833,95.744995 
	C301.065338,87.965775 304.669617,79.599648 301.955627,70.129486 
	C301.119537,67.212090 299.860474,64.416016 299.022156,61.499126 
	C296.270721,51.925613 283.223541,49.431725 275.881409,55.552212 
	C271.437378,59.256821 270.084381,64.324371 268.945404,70.466797 
z"/>
<path fill="#FFFFFF" opacity="1.000000" stroke="none" 
	d="
M193.000000,79.999901 
	C193.000000,55.194878 193.000000,30.889820 193.000000,6.292674 
	C202.938721,6.292674 212.676559,6.292674 222.815338,6.292674 
	C222.815338,14.604961 222.815338,23.015118 222.815338,31.818897 
	C228.605774,31.818897 234.018936,31.818897 239.712585,31.818897 
	C239.712585,38.282539 239.712585,44.353439 239.712585,50.828266 
	C234.385742,50.828266 228.971436,50.828266 223.007050,50.828266 
	C223.007050,64.980934 222.783524,78.748405 223.150940,92.500084 
	C223.253632,96.343819 226.300461,98.823189 230.466354,98.978058 
	C233.444107,99.088760 236.429260,98.999565 239.704895,98.999565 
	C239.704895,106.250763 239.704895,113.327881 239.704895,120.639923 
	C228.621033,122.608536 217.486420,122.921089 206.431900,119.769547 
	C198.858093,117.610321 194.885574,112.120064 194.113770,104.700401 
	C193.279694,96.681694 193.333481,88.570641 193.000000,79.999901 
z"/>
<path fill="#FFFFFF" opacity="1.000000" stroke="none" 
	d="
M433.000000,77.000000 
	C433.000000,61.858269 433.000000,47.216537 433.000000,32.287891 
	C442.615784,32.287891 452.020935,32.287891 461.714355,32.287891 
	C461.714355,61.621052 461.714355,91.022163 461.714355,120.712074 
	C452.384308,120.712074 442.979126,120.712074 433.000000,120.712074 
	C433.000000,106.356911 433.000000,91.928452 433.000000,77.000000 
z"/>
<path fill="#000000" opacity="1.000000" stroke="none" 
	d="
M39.589245,104.848938 
	C32.400242,102.243248 30.448839,100.329590 31.207272,94.552170 
	C31.554857,91.904434 33.591171,88.181931 35.795387,87.311577 
	C43.114937,84.421394 50.858440,82.604904 58.524921,80.351509 
	C61.147625,95.841827 53.159248,106.103287 39.589245,104.848938 
z"/>
<path fill="#000000" opacity="1.000000" stroke="none" 
	d="
M268.970551,70.030640 
	C270.084381,64.324371 271.437378,59.256821 275.881409,55.552212 
	C283.223541,49.431725 296.270721,51.925613 299.022156,61.499126 
	C299.860474,64.416016 301.119537,67.212090 301.955627,70.129486 
	C304.669617,79.599648 301.065338,87.965775 296.497833,95.744995 
	C293.123383,101.492233 279.712280,102.239265 274.989410,96.303368 
	C269.042999,88.829620 266.321960,80.161430 268.970551,70.030640 
z"/>
</svg>